<svg width="170px" height="50px" xmlns="http://www.w3.org/2000/svg" viewBox="28.16936645507812 12.193756103515625 443.66126708984376 125.61248779296875" style="background: rgba(0, 0, 0, 0);" preserveAspectRatio="xMidYMid"><defs><filter id="editing-hole" x="-100%" y="-100%" width="300%" height="300%"><feFlood flood-color="#000000" result="black"></feFlood><feMorphology operator="dilate" radius="2" in="SourceGraphic" result="erode"></feMorphology><feGaussianBlur in="erode" stdDeviation="4" result="blur"></feGaussianBlur><feOffset in="blur" dx="2" dy="2" result="offset"></feOffset><feComposite operator="atop" in="offset" in2="black" result="merge"></feComposite><feComposite operator="in" in="merge" in2="SourceGraphic" result="inner-shadow"></feComposite></filter></defs><g filter="url(#editing-hole)"><g transform="translate(92.06468391418457, 103.95999908447266)"><path d="M26.75 0.38L26.75 0.38Q20.10 0.38 14.75-2.56L14.75-2.56L14.75-2.56Q9.41-5.50 6.37-10.72L6.37-10.72L6.37-10.72Q3.33-15.94 3.33-22.40L3.33-22.40L3.33-22.40Q3.33-28.86 6.37-34.08L6.37-34.08L6.37-34.08Q9.41-39.30 14.78-42.24L14.78-42.24L14.78-42.24Q20.16-45.18 26.82-45.18L26.82-45.18L26.82-45.18Q31.81-45.18 36.03-43.52L36.03-43.52L36.03-43.52Q40.26-41.86 43.20-38.66L43.20-38.66L40.19-35.65L40.19-35.65Q34.94-40.96 26.94-40.96L26.94-40.96L26.94-40.96Q21.63-40.96 17.28-38.53L17.28-38.53L17.28-38.53Q12.93-36.10 10.46-31.87L10.46-31.87L10.46-31.87Q8-27.65 8-22.40L8-22.40L8-22.40Q8-17.15 10.46-12.93L10.46-12.93L10.46-12.93Q12.93-8.70 17.28-6.27L17.28-6.27L17.28-6.27Q21.63-3.84 26.94-3.84L26.94-3.84L26.94-3.84Q35.01-3.84 40.19-9.22L40.19-9.22L43.20-6.21L43.20-6.21Q40.26-3.01 36-1.31L36-1.31L36-1.31Q31.74 0.38 26.75 0.38L26.75 0.38ZM66.11 0.32L66.11 0.32Q61.25 0.32 57.34-1.89L57.34-1.89L57.34-1.89Q53.44-4.10 51.20-8L51.20-8L51.20-8Q48.96-11.90 48.96-16.83L48.96-16.83L48.96-16.83Q48.96-21.76 51.20-25.66L51.20-25.66L51.20-25.66Q53.44-29.57 57.34-31.74L57.34-31.74L57.34-31.74Q61.25-33.92 66.11-33.92L66.11-33.92L66.11-33.92Q70.98-33.92 74.88-31.74L74.88-31.74L74.88-31.74Q78.78-29.57 80.99-25.66L80.99-25.66L80.99-25.66Q83.20-21.76 83.20-16.83L83.20-16.83L83.20-16.83Q83.20-11.90 80.99-8L80.99-8L80.99-8Q78.78-4.10 74.88-1.89L74.88-1.89L74.88-1.89Q70.98 0.32 66.11 0.32L66.11 0.32ZM66.11-3.71L66.11-3.71Q69.70-3.71 72.54-5.34L72.54-5.34L72.54-5.34Q75.39-6.98 76.99-9.98L76.99-9.98L76.99-9.98Q78.59-12.99 78.59-16.83L78.59-16.83L78.59-16.83Q78.59-20.67 76.99-23.68L76.99-23.68L76.99-23.68Q75.39-26.69 72.54-28.32L72.54-28.32L72.54-28.32Q69.70-29.95 66.11-29.95L66.11-29.95L66.11-29.95Q62.53-29.95 59.68-28.32L59.68-28.32L59.68-28.32Q56.83-26.69 55.20-23.68L55.20-23.68L55.20-23.68Q53.57-20.67 53.57-16.83L53.57-16.83L53.57-16.83Q53.57-12.99 55.20-9.98L55.20-9.98L55.20-9.98Q56.83-6.98 59.68-5.34L59.68-5.34L59.68-5.34Q62.53-3.71 66.11-3.71L66.11-3.71ZM134.46-33.92L134.46-33.92Q140.80-33.92 144.42-30.27L144.42-30.27L144.42-30.27Q148.03-26.62 148.03-19.52L148.03-19.52L148.03 0L143.49 0L143.49-19.07L143.49-19.07Q143.49-24.32 140.96-27.07L140.96-27.07L140.96-27.07Q138.43-29.82 133.82-29.82L133.82-29.82L133.82-29.82Q128.58-29.82 125.57-26.59L125.57-26.59L125.57-26.59Q122.56-23.36 122.56-17.66L122.56-17.66L122.56 0L118.02 0L118.02-19.07L118.02-19.07Q118.02-24.32 115.49-27.07L115.49-27.07L115.49-27.07Q112.96-29.82 108.29-29.82L108.29-29.82L108.29-29.82Q103.10-29.82 100.06-26.59L100.06-26.59L100.06-26.59Q97.02-23.36 97.02-17.66L97.02-17.66L97.02 0L92.48 0L92.48-33.66L96.83-33.66L96.83-27.52L96.83-27.52Q98.62-30.59 101.82-32.26L101.82-32.26L101.82-32.26Q105.02-33.92 109.18-33.92L109.18-33.92L109.18-33.92Q113.41-33.92 116.51-32.13L116.51-32.13L116.51-32.13Q119.62-30.34 121.15-26.82L121.15-26.82L121.15-26.82Q123.01-30.14 126.50-32.03L126.50-32.03L126.50-32.03Q129.98-33.92 134.46-33.92L134.46-33.92ZM177.73-33.92L177.73-33.92Q182.46-33.92 186.30-31.78L186.30-31.78L186.30-31.78Q190.14-29.63 192.32-25.73L192.32-25.73L192.32-25.73Q194.50-21.82 194.50-16.83L194.50-16.83L194.50-16.83Q194.50-11.78 192.32-7.87L192.32-7.87L192.32-7.87Q190.14-3.97 186.34-1.82L186.34-1.82L186.34-1.82Q182.53 0.32 177.73 0.32L177.73 0.32L177.73 0.32Q173.63 0.32 170.34-1.38L170.34-1.38L170.34-1.38Q167.04-3.07 164.93-6.34L164.93-6.34L164.93 12.42L160.38 12.42L160.38-33.66L164.74-33.66L164.74-27.01L164.74-27.01Q166.78-30.34 170.14-32.13L170.14-32.13L170.14-32.13Q173.50-33.92 177.73-33.92L177.73-33.92ZM177.41-3.71L177.41-3.71Q180.93-3.71 183.81-5.34L183.81-5.34L183.81-5.34Q186.69-6.98 188.32-9.98L188.32-9.98L188.32-9.98Q189.95-12.99 189.95-16.83L189.95-16.83L189.95-16.83Q189.95-20.67 188.32-23.65L188.32-23.65L188.32-23.65Q186.69-26.62 183.81-28.29L183.81-28.29L183.81-28.29Q180.93-29.95 177.41-29.95L177.41-29.95L177.41-29.95Q173.82-29.95 170.98-28.29L170.98-28.29L170.98-28.29Q168.13-26.62 166.50-23.65L166.50-23.65L166.50-23.65Q164.86-20.67 164.86-16.83L164.86-16.83L164.86-16.83Q164.86-12.99 166.50-9.98L166.50-9.98L166.50-9.98Q168.13-6.98 170.98-5.34L170.98-5.34L170.98-5.34Q173.82-3.71 177.41-3.71L177.41-3.71ZM215.55-33.92L215.55-33.92Q222.14-33.92 225.66-30.62L225.66-30.62L225.66-30.62Q229.18-27.33 229.18-20.86L229.18-20.86L229.18 0L224.83 0L224.83-5.25L224.83-5.25Q223.30-2.62 220.32-1.15L220.32-1.15L220.32-1.15Q217.34 0.32 213.25 0.32L213.25 0.32L213.25 0.32Q207.62 0.32 204.29-2.37L204.29-2.37L204.29-2.37Q200.96-5.06 200.96-9.47L200.96-9.47L200.96-9.47Q200.96-13.76 204.06-16.38L204.06-16.38L204.06-16.38Q207.17-19.01 213.95-19.01L213.95-19.01L224.64-19.01L224.64-21.06L224.64-21.06Q224.64-25.41 222.21-27.68L222.21-27.68L222.21-27.68Q219.78-29.95 215.10-29.95L215.10-29.95L215.10-29.95Q211.90-29.95 208.96-28.90L208.96-28.90L208.96-28.90Q206.02-27.84 203.90-25.98L203.90-25.98L201.86-29.38L201.86-29.38Q204.42-31.55 208-32.74L208-32.74L208-32.74Q211.58-33.92 215.55-33.92L215.55-33.92ZM213.95-3.26L213.95-3.26Q217.79-3.26 220.54-5.02L220.54-5.02L220.54-5.02Q223.30-6.78 224.64-10.11L224.64-10.11L224.64-15.62L214.08-15.62L214.08-15.62Q205.44-15.62 205.44-9.60L205.44-9.60L205.44-9.60Q205.44-6.66 207.68-4.96L207.68-4.96L207.68-4.96Q209.92-3.26 213.95-3.26L213.95-3.26ZM258.69-33.92L258.69-33.92Q265.02-33.92 268.77-30.24L268.77-30.24L268.77-30.24Q272.51-26.56 272.51-19.52L272.51-19.52L272.51 0L267.97 0L267.97-19.07L267.97-19.07Q267.97-24.32 265.34-27.07L265.34-27.07L265.34-27.07Q262.72-29.82 257.86-29.82L257.86-29.82L257.86-29.82Q252.42-29.82 249.25-26.59L249.25-26.59L249.25-26.59Q246.08-23.36 246.08-17.66L246.08-17.66L246.08 0L241.54 0L241.54-33.66L245.89-33.66L245.89-27.46L245.89-27.46Q247.74-30.53 251.04-32.22L251.04-32.22L251.04-32.22Q254.34-33.92 258.69-33.92L258.69-33.92ZM308.67-33.66L313.15-33.66L296.32 4.03L296.32 4.03Q294.27 8.77 291.58 10.75L291.58 10.75L291.58 10.75Q288.90 12.74 285.12 12.74L285.12 12.74L285.12 12.74Q282.69 12.74 280.58 11.97L280.58 11.97L280.58 11.97Q278.46 11.20 276.93 9.66L276.93 9.66L279.04 6.27L279.04 6.27Q281.60 8.83 285.18 8.83L285.18 8.83L285.18 8.83Q287.49 8.83 289.12 7.55L289.12 7.55L289.12 7.55Q290.75 6.27 292.16 3.20L292.16 3.20L293.63-0.06L278.59-33.66L283.33-33.66L296-5.06L308.67-33.66Z" fill="#000000"></path></g></g><style>text {
  font-size: 64px;
  font-family: Arial Black;
  dominant-baseline: central;
  text-anchor: middle;
}</style></svg>